<svg xmlns="http://www.w3.org/2000/svg" version="1.1" xmlns:xlink="http://www.w3.org/1999/xlink" width="100" height="100"><svg xmlns="http://www.w3.org/2000/svg" version="1.1" xmlns:xlink="http://www.w3.org/1999/xlink" width="100" height="100"><svg id="Layer_1" enable-background="new 0 0 100 100" viewBox="0 0 100 100" version="1.1" width="100" height="100" xmlns="http://www.w3.org/2000/svg" xmlns:svg="http://www.w3.org/2000/svg">
  <defs id="defs7"></defs>
  <path d="m 43.382053,85.408758 c 0.504,0.503 1.38,0.504 1.884,0 l 2.265,-2.265 c 0.516,-0.51 0.514,-1.375 0,-1.883 l -28.790999,-28.789 c -0.505,-0.504 -1.381,-0.502 -1.884,0 l -2.265,2.264 c -0.519,0.52 -0.519,1.364 0,1.884 z" id="path1" style="fill:#adb3b5;fill-opacity:1;stroke:#000000;stroke-opacity:1"></path>
  <path d="M 31.843898,62.753917 62.740505,31.85731 68.133501,37.250306 37.236894,68.146913 Z" id="path2" style="fill:#adb3b5;fill-opacity:1;stroke:#000000;stroke-width:0.999849;stroke-opacity:1"></path>
  <path d="m 24.336053,88.613758 c 0.503,0.502 1.38,0.504 1.884,0 l 2.265,-2.265 c 0.515,-0.51 0.514,-1.375 0,-1.883 l -12.948999,-12.948 c -0.504,-0.503 -1.379,-0.503 -1.883,0 l -2.265,2.265 c -0.515,0.51 -0.516,1.373 0,1.883 z" id="path3" style="fill:#adb3b5;fill-opacity:1;stroke:#000000;stroke-opacity:1"></path>
  <path d="m 33.128053,86.279758 c 0.504,0.503 1.379,0.503 1.883,0 l 2.265,-2.265 c 0.515,-0.51 0.514,-1.375 0,-1.883 l -19.406999,-19.407 c -0.52,-0.518 -1.364,-0.518 -1.883,10e-4 l -2.265,2.264 c -0.519,0.52 -0.519,1.364 0,1.884 z" id="path4" style="fill:#adb3b5;fill-opacity:1;stroke:#000000;stroke-opacity:1"></path>
  <path d="m 84.464053,28.485758 c 0.504,0.503 1.379,0.503 1.883,0 l 2.265,-2.265 c 0.515,-0.51 0.514,-1.375 0,-1.883 l -12.948,-12.948001 c -0.511,-0.515 -1.373,-0.516 -1.884,0 l -2.265,2.265 c -0.515,0.51 -0.516,1.373 0,1.883 z" id="path5" style="fill:#adb3b5;fill-opacity:1;stroke:#000000;stroke-opacity:1"></path>
  <path d="m 82.131053,37.278758 c 0.52,0.518 1.363,0.517 1.882,-0.001 l 2.265,-2.264 c 0.519,-0.52 0.519,-1.364 0,-1.884 l -19.406,-19.406001 c -0.511,-0.515 -1.373,-0.515 -1.883,0 l -2.265,2.265 c -0.515,0.51 -0.516,1.373 0,1.883 z" id="path6" style="fill:#adb3b5;fill-opacity:1;stroke:#000000;stroke-opacity:1"></path>
  <path d="m 83.144053,47.531758 2.265,-2.264 c 0.519,-0.52 0.519,-1.364 0,-1.884 l -28.79,-28.790001 c -0.511,-0.515 -1.373,-0.516 -1.884,0 l -2.265,2.265 c -0.515,0.51 -0.516,1.373 0,1.883 l 28.79,28.790001 c 0.504,0.504 1.38,0.503 1.884,0 z" id="path7" style="fill:#adb3b5;fill-opacity:1;stroke:#000000;stroke-opacity:1"></path>
</svg></svg><style>@media (prefers-color-scheme: light) { :root { filter: none; } }
@media (prefers-color-scheme: dark) { :root { filter: none; } }
</style></svg>